<?xml version="1.0" standalone="no"?>
<!DOCTYPE svg PUBLIC "-//W3C//DTD SVG 20010904//EN"
 "http://www.w3.org/TR/2001/REC-SVG-20010904/DTD/svg10.dtd">
<svg version="1.0" xmlns="http://www.w3.org/2000/svg"
 width="760.000000pt" height="760.000000pt" viewBox="0 0 760.000000 760.000000"
 preserveAspectRatio="xMidYMid meet">
<metadata>
Created by potrace 1.14, written by Peter Selinger 2001-2017
</metadata>
<g transform="translate(0.000000,760.000000) scale(0.100000,-0.100000)"
fill="#000000" stroke="none">
<path d="M3606 7593 c-1 -2 -47 -5 -102 -8 -160 -9 -263 -20 -384 -41 -107
-18 -137 -24 -209 -44 -25 -6 -54 -13 -66 -14 -11 -1 -25 -5 -30 -8 -8 -5
-107 -35 -140 -43 -5 -1 -17 -4 -25 -7 -8 -3 -51 -18 -95 -33 -44 -15 -98 -36
-120 -45 -41 -17 -76 -32 -85 -35 -54 -18 -260 -120 -358 -176 -46 -27 -92
-51 -103 -54 -10 -4 -19 -11 -19 -16 0 -5 -5 -9 -11 -9 -12 0 -299 -189 -319
-210 -3 -3 -25 -21 -50 -40 -62 -48 -62 -48 -90 -71 -110 -89 -325 -297 -420
-404 -212 -241 -409 -519 -522 -736 -23 -46 -46 -85 -50 -87 -5 -2 -8 -9 -8
-15 0 -6 -15 -43 -34 -82 -34 -68 -95 -209 -100 -230 -2 -5 -8 -23 -15 -40
-31 -76 -112 -334 -125 -400 -1 -5 -5 -19 -9 -30 -3 -11 -8 -31 -11 -45 -2
-14 -9 -43 -15 -65 -10 -38 -15 -67 -27 -170 -10 -81 -14 -259 -14 -605 1
-449 6 -594 26 -695 3 -11 7 -36 10 -55 3 -19 8 -42 11 -50 3 -8 7 -24 8 -35
2 -11 11 -47 20 -80 9 -33 23 -87 32 -120 9 -33 22 -72 30 -87 7 -16 11 -28 8
-28 -3 0 7 -30 21 -67 14 -38 27 -72 28 -78 2 -5 8 -22 14 -37 7 -16 17 -40
23 -55 23 -62 57 -135 126 -273 105 -208 138 -266 234 -408 16 -23 29 -47 29
-52 0 -6 5 -10 10 -10 6 0 10 -7 10 -15 0 -8 3 -15 8 -15 4 0 18 -18 32 -40
14 -22 28 -40 32 -40 5 0 8 -5 8 -11 0 -6 45 -65 99 -133 151 -185 269 -310
421 -446 106 -94 103 -91 134 -114 15 -11 39 -30 54 -43 15 -13 45 -36 67 -51
22 -15 42 -29 45 -32 15 -15 154 -103 210 -133 47 -25 76 -34 101 -31 38 3
161 54 311 130 54 27 137 69 185 93 48 25 90 47 93 50 3 3 30 18 60 34 30 15
82 43 115 62 33 19 67 38 75 42 8 3 31 16 50 28 19 12 60 35 90 52 61 33 329
193 345 205 6 5 62 43 125 85 156 103 501 351 520 373 3 3 25 21 50 40 25 19
47 37 50 40 3 3 34 29 70 59 64 53 146 124 264 231 94 84 484 477 546 549 30
35 66 76 80 91 22 22 184 224 241 300 58 76 139 191 139 197 0 3 11 20 24 37
30 40 155 257 185 321 48 102 69 152 91 210 19 53 25 71 33 110 2 6 5 15 9 20
13 22 48 225 50 290 3 126 -23 236 -73 306 -10 15 -19 30 -19 34 0 13 -74 85
-87 85 -7 0 -13 4 -13 8 0 15 -137 72 -211 88 -93 19 -267 23 -409 9 -47 -4
-94 -9 -105 -10 -11 -1 -33 -5 -50 -8 -16 -4 -46 -9 -65 -12 -31 -5 -71 -14
-145 -31 -11 -3 -29 -7 -40 -9 -11 -3 -51 -14 -90 -25 -38 -12 -78 -23 -88
-25 -28 -6 -239 -74 -262 -84 -11 -5 -42 -17 -70 -26 -27 -10 -63 -23 -80 -30
-16 -7 -75 -31 -130 -53 -55 -22 -118 -48 -140 -58 -22 -10 -42 -18 -45 -19
-20 -4 -217 -100 -445 -216 -148 -76 -313 -159 -365 -186 -52 -26 -97 -51
-100 -54 -7 -9 -50 -18 -48 -10 1 3 -1 13 -5 21 -41 107 -64 251 -62 383 3
103 10 156 40 297 2 8 14 47 26 85 13 39 23 72 24 75 4 13 19 49 36 87 10 24
19 45 19 47 0 13 85 182 94 188 6 4 8 8 4 8 -9 0 102 194 114 198 4 2 8 9 8
16 0 13 160 250 222 329 18 23 38 49 45 57 37 47 121 148 138 166 11 12 42 48
70 80 62 74 457 468 550 550 151 133 292 252 395 333 36 28 72 57 80 64 35 29
248 185 275 202 17 11 32 22 35 26 3 3 28 21 55 40 163 112 255 193 239 209
-6 6 -18 13 -25 14 -8 2 -21 6 -29 9 -26 11 -254 76 -282 81 -15 2 -32 7 -38
11 -6 4 -23 9 -38 11 -15 3 -52 11 -82 19 -161 41 -196 36 -290 -43 -96 -79
-646 -641 -811 -827 -24 -27 -49 -55 -54 -61 -6 -6 -35 -40 -65 -74 -30 -35
-62 -71 -70 -80 -8 -9 -32 -37 -53 -63 -21 -25 -43 -52 -50 -59 -7 -7 -28 -33
-47 -58 -19 -25 -39 -50 -45 -57 -5 -7 -15 -18 -21 -26 -6 -7 -53 -69 -103
-138 -51 -68 -98 -131 -104 -139 -7 -8 -25 -35 -41 -60 -16 -24 -33 -49 -38
-54 -32 -37 -200 -309 -303 -491 -120 -212 -291 -568 -370 -770 -15 -38 -31
-79 -36 -90 -12 -29 -70 -202 -74 -222 -2 -10 -12 -54 -23 -98 -11 -44 -23
-98 -26 -120 -3 -22 -8 -52 -11 -67 -3 -14 -6 -49 -8 -77 -1 -28 -5 -51 -8
-51 -3 0 -6 -120 -7 -267 -1 -194 3 -285 13 -328 7 -33 14 -61 15 -62 2 -2 3
-6 4 -10 2 -15 30 -78 36 -83 3 -3 14 -25 25 -50 31 -69 120 -188 193 -258
105 -100 256 -185 367 -207 17 -3 41 -8 55 -11 105 -24 415 -23 580 1 14 2 48
6 75 10 28 4 70 11 95 17 25 5 56 12 70 14 14 3 50 12 80 21 30 9 60 18 65 19
6 1 42 11 80 22 66 19 108 29 148 37 38 8 13 -18 -70 -72 -48 -30 -107 -67
-132 -80 -131 -72 -184 -100 -271 -143 -139 -70 -252 -122 -365 -170 -55 -23
-114 -48 -132 -56 -51 -23 -320 -111 -423 -137 -100 -27 -228 -53 -295 -62
-22 -2 -51 -7 -65 -10 -14 -3 -62 -7 -108 -10 -45 -2 -87 -7 -92 -10 -5 -3
-11 -1 -15 4 -3 7 -15 7 -29 1 -13 -5 -26 -7 -28 -4 -3 2 -45 6 -94 9 -49 3
-100 8 -114 11 -14 3 -38 7 -55 9 -46 6 -65 11 -132 34 -74 25 -177 72 -181
83 -2 4 -8 8 -13 8 -13 0 -64 37 -113 82 -23 21 -45 38 -49 38 -5 0 -5 5 -2
10 3 6 2 10 -4 10 -13 0 -91 104 -116 155 -11 22 -25 47 -31 55 -13 17 -71
199 -78 245 -3 17 -8 41 -11 55 -11 41 -14 380 -4 450 5 36 12 83 15 105 9 67
14 92 30 162 9 38 18 77 21 88 9 41 12 50 13 50 1 0 3 8 5 19 6 30 75 249 90
281 7 17 16 41 20 55 8 28 10 33 86 210 29 69 66 150 81 180 15 30 28 60 28
66 0 6 7 17 15 24 8 7 13 16 10 20 -3 5 -2 10 2 12 5 1 31 48 60 103 28 55 74
138 102 185 28 47 56 96 63 110 7 14 16 30 21 35 18 24 57 86 57 92 0 3 11 21
25 39 14 18 25 35 25 37 0 7 250 378 260 387 3 3 23 30 45 60 114 159 343 443
465 579 14 15 61 68 105 117 99 111 491 503 605 605 47 42 112 101 145 130 33
30 70 64 83 77 12 12 25 22 27 22 3 0 13 8 23 18 36 35 233 203 331 282 24 19
48 40 55 45 6 6 34 28 61 50 28 21 52 42 55 45 3 3 40 34 83 68 43 34 75 63
70 63 -14 3 -325 4 -327 2z"/>
<path d="M5565 7103 c-15 -9 -33 -19 -39 -24 -6 -5 -58 -45 -116 -90 -58 -45
-112 -89 -121 -98 -9 -9 -54 -50 -100 -92 -136 -124 -371 -363 -521 -530 -81
-90 -153 -173 -199 -229 -30 -36 -56 -67 -60 -70 -3 -3 -30 -36 -59 -75 -29
-38 -56 -72 -59 -75 -14 -11 -141 -207 -141 -218 0 -7 -3 -12 -7 -12 -5 0 -21
-26 -38 -57 -16 -32 -35 -64 -42 -70 -6 -7 -15 -23 -19 -36 -4 -12 -10 -24
-13 -27 -7 -6 -115 -222 -155 -312 -14 -31 -28 -73 -32 -92 -6 -39 4 -45 48
-27 13 5 59 21 103 34 44 14 170 57 280 96 239 85 224 80 230 81 3 0 24 8 47
16 52 19 178 59 272 85 67 19 141 36 276 64 14 3 45 7 70 11 25 3 56 7 70 9
80 12 279 19 525 18 296 0 376 -6 465 -30 30 -8 65 -17 78 -20 12 -3 25 -9 28
-14 3 -5 11 -9 19 -9 15 0 158 -68 213 -100 81 -49 210 -159 257 -221 57 -74
145 -234 167 -303 27 -85 35 -175 32 -369 -2 -111 -5 -218 -8 -237 -7 -50 -16
-103 -21 -120 -2 -8 -6 -26 -9 -40 -5 -29 -57 -177 -82 -235 -10 -22 -18 -42
-19 -45 -6 -28 -31 -80 -39 -80 -5 0 -6 -3 -3 -6 7 -8 -175 -367 -198 -390 -8
-8 -15 -20 -15 -25 0 -5 -21 -41 -47 -81 -26 -40 -52 -82 -58 -93 -11 -18
-113 -167 -132 -190 -16 -20 -128 -168 -150 -198 -12 -17 -26 -33 -30 -36 -5
-3 -21 -23 -37 -44 -15 -21 -40 -51 -55 -66 -14 -15 -45 -50 -67 -77 -23 -27
-63 -72 -90 -100 -27 -29 -70 -74 -95 -100 -66 -70 -315 -309 -389 -374 -35
-30 -73 -64 -85 -75 -13 -11 -42 -36 -65 -55 -24 -19 -48 -40 -54 -45 -6 -6
-45 -38 -86 -70 -41 -33 -77 -62 -80 -65 -3 -4 -23 -19 -45 -36 -35 -25 -127
-96 -162 -124 -7 -6 -27 -20 -45 -33 -39 -26 -111 -80 -118 -87 -3 -3 -28 -20
-55 -37 -28 -18 -60 -41 -73 -53 -12 -11 -22 -18 -22 -15 0 3 -24 -12 -52 -33
-79 -57 -408 -263 -408 -254 0 4 -4 2 -8 -4 -4 -6 -27 -21 -52 -35 -25 -13
-47 -26 -50 -29 -14 -15 -384 -201 -555 -279 -202 -92 -219 -100 -225 -98 -3
0 -18 -6 -35 -14 -80 -41 -97 -49 -107 -49 -5 0 -24 -7 -41 -15 -18 -8 -66
-27 -107 -43 -41 -16 -76 -34 -78 -40 -4 -14 48 -39 111 -51 90 -19 101 -21
147 -27 25 -3 56 -7 70 -9 14 -3 54 -7 90 -11 36 -3 85 -7 110 -10 207 -21
645 -21 800 0 19 3 58 7 85 10 104 12 244 36 350 61 11 3 36 8 55 11 19 4 42
10 51 15 9 4 30 11 47 14 66 11 320 101 430 151 29 13 55 24 59 24 9 0 347
171 353 179 3 3 25 17 50 30 49 27 242 150 250 160 3 4 18 15 35 25 16 11 34
23 40 28 5 4 49 39 97 76 193 152 392 344 555 538 119 141 353 475 353 503 0
6 3 11 8 11 4 0 12 10 18 23 6 12 40 78 75 147 92 176 225 497 255 610 2 8 20
74 39 145 20 72 38 143 40 159 2 15 7 38 11 49 4 12 8 33 10 47 1 14 5 36 8
50 3 13 8 40 11 60 3 20 7 45 9 55 6 31 19 150 32 285 6 70 6 426 0 505 -5 56
-10 109 -21 215 -7 63 -15 116 -39 240 -8 41 -17 89 -20 105 -3 17 -17 75 -32
130 -14 55 -27 109 -29 120 -4 24 -83 262 -118 355 -56 148 -191 430 -209 438
-5 2 -8 8 -8 12 0 17 -184 315 -210 340 -3 3 -39 50 -80 105 -41 55 -77 102
-81 105 -3 3 -33 37 -66 75 -130 151 -381 389 -534 505 -18 14 -37 30 -43 35
-6 6 -47 36 -91 67 -44 32 -85 61 -90 65 -41 32 -105 73 -113 73 -6 0 -12 4
-14 9 -5 13 -84 60 -110 65 -13 2 -37 -3 -53 -11z"/>
</g>
</svg>
